<svg id="svg" version="1.1" xmlns="http://www.w3.org/2000/svg" xmlns:xlink="http://www.w3.org/1999/xlink" width="400" height="400" viewBox="0, 0, 400,400"><g id="svgg"><path id="path0" d="M195.000 16.036 C 181.627 17.923,170.253 26.261,164.734 38.223 C 163.299 41.335,162.000 45.146,162.000 46.246 C 162.000 46.714,167.889 46.800,200.000 46.800 C 232.111 46.800,238.000 46.714,238.000 46.246 C 238.000 36.956,224.372 21.520,213.000 17.930 C 206.313 15.819,200.715 15.230,195.000 16.036 M160.985 62.895 C 160.878 63.173,160.840 71.320,160.900 81.000 L 161.009 98.600 161.104 80.700 L 161.200 62.800 176.596 62.800 L 191.992 62.800 192.102 80.400 L 192.213 98.000 192.206 80.300 L 192.200 62.600 176.689 62.495 C 164.495 62.413,161.137 62.499,160.985 62.895 M207.785 62.895 C 207.678 63.173,207.640 71.230,207.700 80.800 L 207.809 98.200 207.904 80.500 L 208.000 62.800 223.396 62.800 L 238.792 62.800 238.902 80.600 L 239.012 98.400 239.006 80.500 L 239.000 62.600 223.489 62.495 C 211.295 62.413,207.937 62.499,207.785 62.895 M160.234 145.700 C 160.047 146.358,157.983 170.678,157.993 172.100 C 158.000 173.178,158.535 172.932,185.371 159.515 C 200.426 151.989,212.655 145.689,212.548 145.516 C 212.195 144.944,160.396 145.127,160.234 145.700 M240.501 155.400 C 240.505 156.280,240.587 156.593,240.683 156.095 C 240.779 155.598,240.775 154.878,240.675 154.495 C 240.575 154.113,240.496 154.520,240.501 155.400 M241.301 164.600 C 241.305 165.480,241.387 165.793,241.483 165.295 C 241.579 164.798,241.575 164.078,241.475 163.695 C 241.375 163.313,241.296 163.720,241.301 164.600 M242.093 173.600 C 242.093 174.370,242.175 174.685,242.276 174.300 C 242.376 173.915,242.376 173.285,242.276 172.900 C 242.175 172.515,242.093 172.830,242.093 173.600 M242.901 182.600 C 242.905 183.480,242.987 183.793,243.083 183.295 C 243.179 182.798,243.175 182.078,243.075 181.695 C 242.975 181.313,242.896 181.720,242.901 182.600 M243.568 191.700 C 243.449 192.560,243.510 193.050,243.712 192.848 C 243.905 192.655,243.998 191.981,243.919 191.349 C 243.787 190.291,243.759 190.319,243.568 191.700 M154.493 209.600 C 154.493 210.370,154.575 210.685,154.676 210.300 C 154.776 209.915,154.776 209.285,154.676 208.900 C 154.575 208.515,154.493 208.830,154.493 209.600 M197.557 233.419 L 150.114 257.150 149.864 260.675 C 149.727 262.614,149.440 266.090,149.226 268.400 C 149.012 270.710,148.652 274.670,148.428 277.200 C 148.203 279.730,147.838 283.780,147.617 286.200 C 146.816 294.961,146.272 301.425,146.236 302.600 C 146.185 304.311,150.107 304.589,152.854 303.070 C 153.814 302.538,157.120 300.798,160.200 299.203 C 163.280 297.608,167.600 295.359,169.800 294.205 C 172.000 293.051,176.140 290.887,179.000 289.396 C 181.860 287.905,185.640 285.926,187.400 284.998 C 189.160 284.070,193.480 281.824,197.000 280.007 C 200.520 278.189,204.300 276.207,205.400 275.603 C 206.500 274.998,210.460 272.923,214.200 270.990 C 217.940 269.058,222.260 266.812,223.800 265.998 C 225.340 265.185,229.660 262.927,233.400 260.982 C 237.140 259.036,242.180 256.408,244.600 255.140 L 249.000 252.835 248.982 250.318 C 248.972 248.933,248.740 245.370,248.465 242.400 C 248.191 239.430,247.799 235.110,247.595 232.800 C 247.390 230.490,247.038 226.575,246.811 224.100 C 246.585 221.625,246.230 217.621,246.021 215.203 C 245.813 212.784,245.498 210.554,245.321 210.246 C 245.071 209.810,234.541 214.919,197.557 233.419 M253.693 302.000 C 253.693 302.770,253.775 303.085,253.876 302.700 C 253.976 302.315,253.976 301.685,253.876 301.300 C 253.775 300.915,253.693 301.230,253.693 302.000 M134.822 320.121 C 131.147 321.293,129.445 325.021,129.672 331.400 L 129.800 335.000 150.200 335.200 C 169.686 335.391,170.661 335.436,171.958 336.200 C 177.388 339.400,177.289 346.881,171.779 349.772 C 170.229 350.585,169.601 350.604,137.200 350.800 C 100.451 351.023,102.469 350.861,100.261 353.756 C 98.560 355.986,98.405 357.450,98.402 371.300 L 98.400 384.400 200.000 384.400 L 301.600 384.400 301.598 371.300 C 301.595 357.450,301.440 355.986,299.739 353.756 C 297.531 350.861,299.549 351.023,262.800 350.800 C 230.399 350.604,229.771 350.585,228.221 349.772 C 222.711 346.881,222.612 339.400,228.042 336.200 C 229.339 335.436,230.314 335.391,249.800 335.200 L 270.200 335.000 270.328 331.400 C 270.561 324.861,268.845 321.259,264.941 320.089 C 262.718 319.423,136.914 319.454,134.822 320.121 M203.206 336.116 C 210.411 339.926,208.048 350.600,200.000 350.600 C 191.952 350.600,189.589 339.926,196.794 336.116 C 197.747 335.612,199.189 335.200,200.000 335.200 C 200.811 335.200,202.253 335.612,203.206 336.116 " stroke="none" fill="#fa6344" fill-rule="evenodd"></path><path id="path1" d="M161.200 80.600 L 161.200 98.400 176.600 98.400 L 192.000 98.400 192.000 80.600 L 192.000 62.800 176.600 62.800 L 161.200 62.800 161.200 80.600 M208.000 80.600 L 208.000 98.400 223.400 98.400 L 238.800 98.400 238.800 80.600 L 238.800 62.800 223.400 62.800 L 208.000 62.800 208.000 80.600 " stroke="none" fill="#fed42d" fill-rule="evenodd"></path><path id="path2" d="M161.200 80.600 L 161.200 98.400 176.600 98.400 L 192.000 98.400 192.000 80.600 L 192.000 62.800 176.600 62.800 L 161.200 62.800 161.200 80.600 M208.000 80.600 L 208.000 98.400 223.400 98.400 L 238.800 98.400 238.800 80.600 L 238.800 62.800 223.400 62.800 L 208.000 62.800 208.000 80.600 " stroke="none" fill="#fed42d" fill-rule="evenodd"></path><path id="path3" d="M151.400 114.488 C 144.568 116.245,143.555 125.284,149.821 128.572 C 152.311 129.878,247.689 129.878,250.179 128.572 C 255.766 125.641,255.702 117.667,250.071 115.065 L 248.200 114.200 200.600 114.138 C 169.086 114.097,152.459 114.215,151.400 114.488 M197.949 170.814 C 161.350 189.125,156.468 191.673,156.239 192.588 C 156.095 193.159,155.800 195.825,155.581 198.513 C 155.090 204.555,154.394 212.390,153.193 225.400 C 152.269 235.404,152.168 238.000,152.701 238.000 C 152.976 238.000,173.565 227.818,198.454 215.373 L 243.706 192.746 243.464 189.073 C 243.239 185.641,243.056 183.506,242.020 172.200 C 241.600 167.613,241.042 161.361,240.458 154.678 C 240.269 152.520,239.954 150.602,239.758 150.416 C 239.557 150.225,221.202 159.181,197.949 170.814 M247.189 271.529 C 245.545 272.370,242.310 274.056,240.000 275.276 C 237.690 276.495,233.550 278.667,230.800 280.103 C 218.996 286.264,216.762 287.429,212.400 289.697 C 209.870 291.013,206.360 292.855,204.600 293.790 C 202.840 294.725,198.340 297.079,194.600 299.020 C 190.860 300.962,187.388 302.764,186.884 303.026 C 186.114 303.426,186.071 303.542,186.616 303.751 C 187.368 304.039,253.371 304.096,253.658 303.809 C 253.763 303.703,253.723 302.308,253.569 300.709 C 253.414 299.109,253.081 295.370,252.828 292.400 C 251.602 278.017,250.746 270.000,250.436 270.000 C 250.294 270.000,248.833 270.688,247.189 271.529 " stroke="none" fill="#e3e3e3" fill-rule="evenodd"></path><path id="path4" d="M188.800 0.273 C 187.810 0.371,186.829 0.619,186.620 0.825 C 186.411 1.031,185.747 1.200,185.144 1.200 C 184.541 1.200,183.936 1.380,183.800 1.600 C 183.664 1.820,183.124 2.000,182.600 2.000 C 182.076 2.000,181.536 2.180,181.400 2.400 C 181.264 2.620,180.713 2.800,180.176 2.800 C 179.639 2.800,179.200 2.980,179.200 3.200 C 179.200 3.420,178.750 3.600,178.200 3.600 C 177.650 3.600,177.200 3.780,177.200 4.000 C 177.200 4.220,176.840 4.400,176.400 4.400 C 175.960 4.400,175.600 4.580,175.600 4.800 C 175.600 5.020,175.240 5.200,174.800 5.200 C 174.360 5.200,174.000 5.380,174.000 5.600 C 174.000 5.820,173.680 6.000,173.288 6.000 C 172.897 6.000,172.317 6.360,172.000 6.800 C 171.683 7.240,171.103 7.600,170.712 7.600 C 170.320 7.600,170.000 7.753,170.000 7.939 C 170.000 8.126,169.280 8.603,168.400 9.000 C 167.520 9.397,166.800 9.862,166.800 10.034 C 166.800 10.206,166.454 10.456,166.032 10.590 C 164.843 10.967,156.000 19.984,156.000 20.819 C 156.000 21.033,155.460 21.772,154.800 22.463 C 154.140 23.154,153.600 23.962,153.600 24.259 C 153.600 24.557,153.420 24.800,153.200 24.800 C 152.980 24.800,152.800 25.070,152.800 25.400 C 152.800 25.730,152.620 26.000,152.400 26.000 C 152.180 26.000,152.000 26.255,152.000 26.567 C 152.000 26.878,151.865 27.193,151.700 27.267 C 151.205 27.487,148.800 32.454,148.800 33.256 C 148.800 33.665,148.664 34.000,148.497 34.000 C 148.131 34.000,147.200 36.867,147.200 37.994 C 147.200 38.437,147.020 38.800,146.800 38.800 C 146.580 38.800,146.400 39.340,146.400 40.000 C 146.400 40.660,146.220 41.200,146.000 41.200 C 145.780 41.200,145.594 42.055,145.587 43.100 C 145.566 46.252,145.290 46.400,139.430 46.400 C 136.459 46.400,134.001 46.585,133.515 46.846 C 128.254 49.661,127.440 56.884,131.909 61.100 L 133.711 62.800 139.260 62.800 L 144.808 62.800 144.704 80.881 L 144.600 98.961 143.000 99.781 C 142.120 100.231,141.340 100.735,141.267 100.900 C 141.193 101.065,140.828 101.200,140.455 101.200 C 140.082 101.200,139.517 101.560,139.200 102.000 C 138.883 102.440,138.428 102.800,138.190 102.800 C 137.632 102.800,134.800 105.386,134.800 105.895 C 134.800 106.107,134.289 106.816,133.665 107.469 C 133.041 108.121,132.278 109.228,131.968 109.928 C 131.658 110.628,131.269 111.200,131.102 111.200 C 130.936 111.200,130.800 111.549,130.800 111.976 C 130.800 112.403,130.620 112.864,130.400 113.000 C 130.180 113.136,130.000 113.741,130.000 114.344 C 130.000 114.947,129.810 115.630,129.579 115.861 C 128.738 116.702,129.555 130.800,130.444 130.800 C 130.640 130.800,130.800 131.160,130.800 131.600 C 130.800 132.040,130.980 132.400,131.200 132.400 C 131.420 132.400,131.600 132.760,131.600 133.200 C 131.600 133.640,131.780 134.000,132.000 134.000 C 132.220 134.000,132.400 134.288,132.400 134.640 C 132.400 134.991,132.940 135.783,133.600 136.400 C 134.260 137.017,134.800 137.715,134.800 137.951 C 134.800 138.188,135.745 139.107,136.900 139.994 C 138.055 140.881,139.217 141.785,139.483 142.003 C 139.749 142.221,140.244 142.400,140.583 142.400 C 140.922 142.400,141.200 142.546,141.200 142.725 C 141.200 142.904,141.844 143.303,142.630 143.612 C 143.889 144.106,144.027 144.295,143.783 145.186 C 143.499 146.226,143.142 150.226,142.425 160.400 C 142.200 163.590,141.833 167.730,141.609 169.600 C 141.385 171.470,141.202 174.564,141.201 176.476 C 141.201 178.388,141.020 180.064,140.800 180.200 C 140.575 180.339,140.400 182.263,140.400 184.600 C 140.400 186.937,140.225 188.861,140.000 189.000 C 139.775 189.139,139.600 191.063,139.600 193.400 C 139.600 195.737,139.425 197.661,139.200 197.800 C 138.973 197.940,138.800 199.937,138.800 202.424 C 138.800 205.075,138.642 206.800,138.400 206.800 C 138.159 206.800,138.000 208.467,138.000 211.000 C 138.000 213.533,137.841 215.200,137.600 215.200 C 137.358 215.200,137.200 216.933,137.200 219.600 C 137.200 222.267,137.042 224.000,136.800 224.000 C 136.559 224.000,136.400 225.659,136.400 228.176 C 136.400 230.529,136.225 232.461,136.000 232.600 C 135.775 232.739,135.600 234.671,135.600 237.024 C 135.600 239.541,135.441 241.200,135.200 241.200 C 134.959 241.200,134.800 242.859,134.800 245.376 C 134.800 247.729,134.625 249.661,134.400 249.800 C 134.173 249.940,134.000 251.930,134.000 254.400 C 134.000 256.870,133.827 258.860,133.600 259.000 C 133.375 259.139,133.200 261.071,133.200 263.424 C 133.200 265.941,133.041 267.600,132.800 267.600 C 132.558 267.600,132.400 269.333,132.400 272.000 C 132.400 274.667,132.242 276.400,132.000 276.400 C 131.759 276.400,131.600 278.059,131.600 280.576 C 131.600 282.929,131.425 284.861,131.200 285.000 C 130.975 285.139,130.800 287.071,130.800 289.424 C 130.800 291.941,130.641 293.600,130.400 293.600 C 130.161 293.600,130.000 295.157,130.000 297.472 C 130.000 302.466,129.090 305.200,127.429 305.200 C 127.083 305.200,126.800 305.336,126.800 305.502 C 126.800 305.669,126.218 306.062,125.507 306.377 C 124.796 306.692,123.798 307.366,123.289 307.875 C 122.780 308.384,122.190 308.800,121.978 308.800 C 121.520 308.800,119.200 310.957,119.200 311.383 C 119.200 311.546,118.660 312.183,118.000 312.800 C 117.340 313.417,116.800 314.209,116.800 314.560 C 116.800 314.912,116.620 315.200,116.400 315.200 C 116.180 315.200,116.000 315.560,116.000 316.000 C 116.000 316.440,115.820 316.800,115.600 316.800 C 115.380 316.800,115.200 317.160,115.200 317.600 C 115.200 318.040,115.020 318.400,114.800 318.400 C 114.580 318.400,114.400 319.019,114.400 319.776 C 114.400 320.533,114.220 321.264,114.000 321.400 C 113.760 321.549,113.600 324.271,113.600 328.224 L 113.600 334.800 107.024 334.800 C 103.071 334.800,100.349 334.960,100.200 335.200 C 100.064 335.420,99.434 335.600,98.800 335.600 C 98.166 335.600,97.536 335.780,97.400 336.000 C 97.264 336.220,96.803 336.400,96.376 336.400 C 95.949 336.400,95.600 336.580,95.600 336.800 C 95.600 337.020,95.240 337.200,94.800 337.200 C 94.360 337.200,94.000 337.380,94.000 337.600 C 94.000 337.820,93.802 338.000,93.560 338.000 C 93.319 338.000,92.617 338.540,92.000 339.200 C 91.383 339.860,90.673 340.400,90.421 340.400 C 89.940 340.400,88.000 342.179,88.000 342.621 C 88.000 342.763,87.460 343.383,86.800 344.000 C 86.140 344.617,85.600 345.409,85.600 345.760 C 85.600 346.112,85.420 346.400,85.200 346.400 C 84.980 346.400,84.800 346.760,84.800 347.200 C 84.800 347.640,84.620 348.000,84.400 348.000 C 84.180 348.000,84.000 348.349,84.000 348.776 C 84.000 349.203,83.820 349.664,83.600 349.800 C 83.380 349.936,83.200 350.566,83.200 351.200 C 83.200 351.834,83.020 352.464,82.800 352.600 C 82.544 352.758,82.400 358.471,82.400 368.424 L 82.400 384.000 69.009 384.000 L 55.617 384.000 53.409 386.209 L 51.200 388.417 51.200 392.182 L 51.200 395.947 53.174 397.973 L 55.148 400.000 200.000 400.000 L 344.852 400.000 346.826 397.973 L 348.800 395.947 348.800 392.182 L 348.800 388.417 346.591 386.209 L 344.383 384.000 330.991 384.000 L 317.600 384.000 317.600 368.424 C 317.600 358.471,317.456 352.758,317.200 352.600 C 316.980 352.464,316.800 351.834,316.800 351.200 C 316.800 350.566,316.620 349.936,316.400 349.800 C 316.180 349.664,316.000 349.203,316.000 348.776 C 316.000 348.349,315.820 348.000,315.600 348.000 C 315.380 348.000,315.200 347.640,315.200 347.200 C 315.200 346.760,315.020 346.400,314.800 346.400 C 314.580 346.400,314.400 346.112,314.400 345.760 C 314.400 345.409,313.860 344.617,313.200 344.000 C 312.540 343.383,312.000 342.763,312.000 342.621 C 312.000 342.179,310.060 340.400,309.579 340.400 C 309.327 340.400,308.617 339.860,308.000 339.200 C 307.383 338.540,306.681 338.000,306.440 338.000 C 306.198 338.000,306.000 337.820,306.000 337.600 C 306.000 337.380,305.640 337.200,305.200 337.200 C 304.760 337.200,304.400 337.020,304.400 336.800 C 304.400 336.580,304.051 336.400,303.624 336.400 C 303.197 336.400,302.736 336.220,302.600 336.000 C 302.464 335.780,301.834 335.600,301.200 335.600 C 300.566 335.600,299.936 335.420,299.800 335.200 C 299.651 334.960,296.929 334.800,292.976 334.800 L 286.400 334.800 286.400 328.224 C 286.400 324.271,286.240 321.549,286.000 321.400 C 285.780 321.264,285.600 320.533,285.600 319.776 C 285.600 319.019,285.420 318.400,285.200 318.400 C 284.980 318.400,284.800 318.040,284.800 317.600 C 284.800 317.160,284.620 316.800,284.400 316.800 C 284.180 316.800,284.000 316.440,284.000 316.000 C 284.000 315.560,283.820 315.200,283.600 315.200 C 283.380 315.200,283.200 314.912,283.200 314.560 C 283.200 314.209,282.660 313.417,282.000 312.800 C 281.340 312.183,280.800 311.546,280.800 311.383 C 280.800 310.957,278.480 308.800,278.022 308.800 C 277.810 308.800,277.220 308.384,276.711 307.875 C 276.202 307.366,275.204 306.692,274.493 306.377 C 273.782 306.062,273.200 305.669,273.200 305.502 C 273.200 305.336,272.917 305.200,272.571 305.200 C 270.910 305.200,270.000 302.466,270.000 297.472 C 270.000 295.157,269.839 293.600,269.600 293.600 C 269.359 293.600,269.200 291.941,269.200 289.424 C 269.200 287.071,269.025 285.139,268.800 285.000 C 268.575 284.861,268.400 282.929,268.400 280.576 C 268.400 278.059,268.241 276.400,268.000 276.400 C 267.758 276.400,267.600 274.667,267.600 272.000 C 267.600 269.333,267.442 267.600,267.200 267.600 C 266.959 267.600,266.800 265.941,266.800 263.424 C 266.800 261.071,266.625 259.139,266.400 259.000 C 266.173 258.860,266.000 256.870,266.000 254.400 C 266.000 251.930,265.827 249.940,265.600 249.800 C 265.375 249.661,265.200 247.729,265.200 245.376 C 265.200 242.859,265.041 241.200,264.800 241.200 C 264.559 241.200,264.400 239.541,264.400 237.024 C 264.400 234.671,264.225 232.739,264.000 232.600 C 263.775 232.461,263.600 230.529,263.600 228.176 C 263.600 225.659,263.441 224.000,263.200 224.000 C 262.958 224.000,262.800 222.267,262.800 219.600 C 262.800 216.933,262.642 215.200,262.400 215.200 C 262.159 215.200,262.000 213.533,262.000 211.000 C 262.000 208.467,261.841 206.800,261.600 206.800 C 261.358 206.800,261.200 205.075,261.200 202.424 C 261.200 199.937,261.027 197.940,260.800 197.800 C 260.575 197.661,260.400 195.737,260.400 193.400 C 260.400 191.063,260.225 189.139,260.000 189.000 C 259.775 188.861,259.600 186.937,259.600 184.600 C 259.600 182.263,259.425 180.339,259.200 180.200 C 258.980 180.064,258.799 178.388,258.799 176.476 C 258.798 174.564,258.615 171.470,258.391 169.600 C 258.167 167.730,257.800 163.590,257.575 160.400 C 256.851 150.134,256.500 146.224,256.200 145.100 C 255.948 144.154,256.025 144.000,256.753 144.000 C 257.219 144.000,257.600 143.820,257.600 143.600 C 257.600 143.380,257.870 143.200,258.200 143.200 C 258.530 143.200,258.800 143.020,258.800 142.800 C 258.800 142.580,259.160 142.400,259.600 142.400 C 260.040 142.400,260.400 142.249,260.400 142.064 C 260.400 141.880,260.851 141.523,261.402 141.272 C 262.612 140.720,265.200 138.420,265.200 137.896 C 265.200 137.690,265.740 137.017,266.400 136.400 C 267.060 135.783,267.600 134.991,267.600 134.640 C 267.600 134.288,267.780 134.000,268.000 134.000 C 268.220 134.000,268.400 133.640,268.400 133.200 C 268.400 132.760,268.580 132.400,268.800 132.400 C 269.020 132.400,269.200 132.040,269.200 131.600 C 269.200 131.160,269.360 130.800,269.556 130.800 C 270.445 130.800,271.262 116.702,270.421 115.861 C 270.190 115.630,270.000 114.947,270.000 114.344 C 270.000 113.741,269.820 113.136,269.600 113.000 C 269.380 112.864,269.200 112.403,269.200 111.976 C 269.200 111.549,269.064 111.200,268.898 111.200 C 268.731 111.200,268.342 110.628,268.032 109.928 C 267.722 109.228,266.959 108.121,266.335 107.469 C 265.711 106.816,265.200 106.120,265.200 105.922 C 265.200 105.456,263.344 103.600,262.878 103.600 C 262.680 103.600,261.954 103.060,261.263 102.400 C 260.572 101.740,259.751 101.200,259.437 101.200 C 259.123 101.200,258.807 101.065,258.733 100.900 C 258.660 100.735,257.880 100.231,257.000 99.781 L 255.400 98.961 255.296 80.881 L 255.192 62.800 260.740 62.800 L 266.289 62.800 268.091 61.100 C 272.560 56.884,271.746 49.661,266.485 46.846 C 265.999 46.585,263.541 46.400,260.570 46.400 C 254.710 46.400,254.434 46.252,254.413 43.100 C 254.406 42.055,254.220 41.200,254.000 41.200 C 253.780 41.200,253.600 40.660,253.600 40.000 C 253.600 39.340,253.420 38.800,253.200 38.800 C 252.980 38.800,252.800 38.437,252.800 37.994 C 252.800 36.867,251.869 34.000,251.503 34.000 C 251.336 34.000,251.200 33.665,251.200 33.256 C 251.200 32.454,248.795 27.487,248.300 27.267 C 248.135 27.193,248.000 26.878,248.000 26.567 C 248.000 26.255,247.820 26.000,247.600 26.000 C 247.380 26.000,247.200 25.730,247.200 25.400 C 247.200 25.070,247.020 24.800,246.800 24.800 C 246.580 24.800,246.400 24.557,246.400 24.259 C 246.400 23.962,245.860 23.154,245.200 22.463 C 244.540 21.772,244.000 21.033,244.000 20.819 C 244.000 19.984,235.157 10.967,233.968 10.590 C 233.546 10.456,233.200 10.206,233.200 10.034 C 233.200 9.862,232.480 9.397,231.600 9.000 C 230.720 8.603,230.000 8.126,230.000 7.939 C 230.000 7.753,229.680 7.600,229.288 7.600 C 228.897 7.600,228.317 7.240,228.000 6.800 C 227.683 6.360,227.103 6.000,226.712 6.000 C 226.320 6.000,226.000 5.820,226.000 5.600 C 226.000 5.380,225.640 5.200,225.200 5.200 C 224.760 5.200,224.400 5.020,224.400 4.800 C 224.400 4.580,224.051 4.400,223.624 4.400 C 223.197 4.400,222.736 4.220,222.600 4.000 C 222.464 3.780,222.003 3.600,221.576 3.600 C 221.149 3.600,220.800 3.420,220.800 3.200 C 220.800 2.980,220.361 2.800,219.824 2.800 C 219.287 2.800,218.736 2.620,218.600 2.400 C 218.464 2.180,217.924 2.000,217.400 2.000 C 216.876 2.000,216.336 1.820,216.200 1.600 C 216.064 1.380,215.459 1.200,214.856 1.200 C 214.253 1.200,213.537 0.977,213.265 0.705 C 212.769 0.209,192.997 -0.140,188.800 0.273 M204.671 16.033 C 211.645 16.999,217.041 19.063,222.200 22.738 C 230.120 28.380,238.000 40.105,238.000 46.246 C 238.000 46.714,232.111 46.800,200.000 46.800 C 167.889 46.800,162.000 46.714,162.000 46.246 C 162.000 45.146,163.299 41.335,164.734 38.223 C 171.730 23.060,188.424 13.784,204.671 16.033 M55.400 41.954 C 53.000 42.569,50.402 44.620,50.400 45.900 C 50.400 46.175,50.220 46.400,50.000 46.400 C 49.763 46.400,49.600 47.867,49.600 50.000 C 49.600 52.133,49.763 53.600,50.000 53.600 C 50.220 53.600,50.400 53.891,50.400 54.246 C 50.400 55.165,53.629 58.000,54.676 58.000 C 55.158 58.000,55.664 58.180,55.800 58.400 C 55.936 58.620,56.397 58.800,56.824 58.800 C 57.251 58.800,57.600 58.980,57.600 59.200 C 57.600 59.420,57.960 59.600,58.400 59.600 C 58.840 59.600,59.200 59.780,59.200 60.000 C 59.200 60.220,59.650 60.400,60.200 60.400 C 60.750 60.400,61.200 60.580,61.200 60.800 C 61.200 61.020,61.549 61.200,61.976 61.200 C 62.403 61.200,62.864 61.380,63.000 61.600 C 63.136 61.820,63.687 62.000,64.224 62.000 C 64.761 62.000,65.200 62.180,65.200 62.400 C 65.200 62.620,65.560 62.800,66.000 62.800 C 66.440 62.800,66.800 62.980,66.800 63.200 C 66.800 63.420,67.239 63.600,67.776 63.600 C 68.313 63.600,68.864 63.780,69.000 64.000 C 69.136 64.220,69.597 64.400,70.024 64.400 C 70.451 64.400,70.800 64.580,70.800 64.800 C 70.800 65.020,71.160 65.200,71.600 65.200 C 72.040 65.200,72.400 65.380,72.400 65.600 C 72.400 65.820,72.940 66.000,73.600 66.000 C 74.260 66.000,74.800 66.180,74.800 66.400 C 74.800 66.620,75.160 66.800,75.600 66.800 C 76.040 66.800,76.400 66.980,76.400 67.200 C 76.400 67.420,76.850 67.600,77.400 67.600 C 77.950 67.600,78.400 67.780,78.400 68.000 C 78.400 68.220,78.760 68.400,79.200 68.400 C 79.640 68.400,80.000 68.580,80.000 68.800 C 80.000 69.020,80.439 69.200,80.976 69.200 C 81.513 69.200,82.064 69.380,82.200 69.600 C 82.336 69.820,82.797 70.000,83.224 70.000 C 83.651 70.000,84.000 70.180,84.000 70.400 C 84.000 70.620,84.349 70.800,84.776 70.800 C 85.203 70.800,85.664 70.980,85.800 71.200 C 85.936 71.420,86.487 71.600,87.024 71.600 C 87.561 71.600,88.000 71.780,88.000 72.000 C 88.000 72.220,88.360 72.400,88.800 72.400 C 89.240 72.400,89.600 72.580,89.600 72.800 C 89.600 73.020,90.020 73.200,90.533 73.200 C 91.047 73.200,91.595 73.328,91.752 73.485 C 92.194 73.927,95.717 75.199,96.500 75.200 C 96.885 75.200,97.200 75.380,97.200 75.600 C 97.200 75.820,97.560 76.000,98.000 76.000 C 98.440 76.000,98.800 76.180,98.800 76.400 C 98.800 76.620,99.239 76.800,99.776 76.800 C 100.313 76.800,100.864 76.980,101.000 77.200 C 101.136 77.420,101.597 77.600,102.024 77.600 C 102.451 77.600,102.800 77.780,102.800 78.000 C 102.800 78.220,103.160 78.400,103.600 78.400 C 104.040 78.400,104.400 78.580,104.400 78.800 C 104.400 79.020,104.940 79.200,105.600 79.200 C 106.260 79.200,106.800 79.380,106.800 79.600 C 106.800 79.820,107.340 80.000,108.000 80.000 C 108.660 80.000,109.200 80.180,109.200 80.400 C 109.200 80.922,112.678 80.922,113.000 80.400 C 113.136 80.180,113.687 80.000,114.224 80.000 C 114.761 80.000,115.200 79.820,115.200 79.600 C 115.200 79.380,115.478 79.200,115.818 79.200 C 116.618 79.200,118.400 77.418,118.400 76.618 C 118.400 76.278,118.580 76.000,118.800 76.000 C 119.020 76.000,119.200 75.561,119.200 75.024 C 119.200 74.487,119.380 73.936,119.600 73.800 C 119.820 73.664,120.000 72.854,120.000 72.000 C 120.000 71.146,119.820 70.336,119.600 70.200 C 119.380 70.064,119.200 69.509,119.200 68.966 C 119.200 67.859,116.026 64.400,115.011 64.400 C 114.675 64.400,114.400 64.220,114.400 64.000 C 114.400 63.780,114.040 63.600,113.600 63.600 C 113.160 63.600,112.800 63.420,112.800 63.200 C 112.800 62.980,112.260 62.800,111.600 62.800 C 110.940 62.800,110.400 62.620,110.400 62.400 C 110.400 62.180,110.040 62.000,109.600 62.000 C 109.160 62.000,108.800 61.820,108.800 61.600 C 108.800 61.380,108.535 61.200,108.212 61.200 C 107.888 61.200,106.653 60.756,105.465 60.213 C 104.278 59.670,102.473 59.003,101.454 58.730 C 100.434 58.457,99.600 58.091,99.600 57.917 C 99.600 57.743,99.161 57.600,98.624 57.600 C 98.087 57.600,97.536 57.420,97.400 57.200 C 97.264 56.980,96.803 56.800,96.376 56.800 C 95.949 56.800,95.600 56.620,95.600 56.400 C 95.600 56.180,95.240 56.000,94.800 56.000 C 94.360 56.000,94.000 55.820,94.000 55.600 C 94.000 55.380,93.460 55.200,92.800 55.200 C 92.140 55.200,91.600 55.020,91.600 54.800 C 91.600 54.580,91.240 54.400,90.800 54.400 C 90.360 54.400,90.000 54.220,90.000 54.000 C 90.000 53.780,89.550 53.600,89.000 53.600 C 88.450 53.600,88.000 53.420,88.000 53.200 C 88.000 52.980,87.640 52.800,87.200 52.800 C 86.760 52.800,86.400 52.620,86.400 52.400 C 86.400 52.180,85.950 52.000,85.400 52.000 C 84.850 52.000,84.400 51.820,84.400 51.600 C 84.400 51.380,83.950 51.200,83.400 51.200 C 82.850 51.200,82.400 51.020,82.400 50.800 C 82.400 50.580,82.040 50.400,81.600 50.400 C 81.160 50.400,80.800 50.220,80.800 50.000 C 80.800 49.780,80.260 49.600,79.600 49.600 C 78.940 49.600,78.400 49.420,78.400 49.200 C 78.400 48.980,78.040 48.800,77.600 48.800 C 77.160 48.800,76.800 48.620,76.800 48.400 C 76.800 48.180,76.457 48.000,76.038 48.000 C 75.379 48.000,74.211 47.514,71.105 45.950 C 70.723 45.757,70.138 45.600,69.805 45.600 C 69.472 45.600,69.200 45.420,69.200 45.200 C 69.200 44.980,68.851 44.800,68.424 44.800 C 67.997 44.800,67.536 44.620,67.400 44.400 C 67.264 44.180,66.713 44.000,66.176 44.000 C 65.639 44.000,65.200 43.820,65.200 43.600 C 65.200 43.380,64.958 43.200,64.661 43.200 C 64.365 43.200,63.600 42.945,62.961 42.633 C 61.540 41.939,57.036 41.534,55.400 41.954 M339.045 42.000 C 337.970 42.192,336.899 42.541,336.665 42.775 C 336.431 43.009,335.916 43.200,335.520 43.200 C 335.124 43.200,334.800 43.380,334.800 43.600 C 334.800 43.820,334.361 44.000,333.824 44.000 C 333.287 44.000,332.736 44.180,332.600 44.400 C 332.464 44.620,332.003 44.800,331.576 44.800 C 331.149 44.800,330.800 44.980,330.800 45.200 C 330.800 45.420,330.528 45.600,330.195 45.600 C 329.862 45.600,329.277 45.757,328.895 45.950 C 325.789 47.514,324.621 48.000,323.962 48.000 C 323.543 48.000,323.200 48.180,323.200 48.400 C 323.200 48.620,322.840 48.800,322.400 48.800 C 321.960 48.800,321.600 48.980,321.600 49.200 C 321.600 49.420,321.060 49.600,320.400 49.600 C 319.740 49.600,319.200 49.780,319.200 50.000 C 319.200 50.220,318.840 50.400,318.400 50.400 C 317.960 50.400,317.600 50.580,317.600 50.800 C 317.600 51.020,317.150 51.200,316.600 51.200 C 316.050 51.200,315.600 51.380,315.600 51.600 C 315.600 51.820,315.150 52.000,314.600 52.000 C 314.050 52.000,313.600 52.180,313.600 52.400 C 313.600 52.620,313.240 52.800,312.800 52.800 C 312.360 52.800,312.000 52.980,312.000 53.200 C 312.000 53.420,311.550 53.600,311.000 53.600 C 310.450 53.600,310.000 53.780,310.000 54.000 C 310.000 54.220,309.640 54.400,309.200 54.400 C 308.760 54.400,308.400 54.580,308.400 54.800 C 308.400 55.020,307.860 55.200,307.200 55.200 C 306.540 55.200,306.000 55.380,306.000 55.600 C 306.000 55.820,305.640 56.000,305.200 56.000 C 304.760 56.000,304.400 56.180,304.400 56.400 C 304.400 56.620,304.051 56.800,303.624 56.800 C 303.197 56.800,302.736 56.980,302.600 57.200 C 302.464 57.420,301.913 57.600,301.376 57.600 C 300.839 57.600,300.400 57.743,300.400 57.917 C 300.400 58.091,299.566 58.457,298.546 58.730 C 297.527 59.003,295.722 59.670,294.535 60.213 C 293.347 60.756,292.112 61.200,291.788 61.200 C 291.465 61.200,291.200 61.380,291.200 61.600 C 291.200 61.820,290.840 62.000,290.400 62.000 C 289.960 62.000,289.600 62.180,289.600 62.400 C 289.600 62.620,289.060 62.800,288.400 62.800 C 287.740 62.800,287.200 62.980,287.200 63.200 C 287.200 63.420,286.840 63.600,286.400 63.600 C 285.960 63.600,285.600 63.780,285.600 64.000 C 285.600 64.220,285.325 64.400,284.989 64.400 C 283.974 64.400,280.800 67.859,280.800 68.966 C 280.800 69.509,280.620 70.064,280.400 70.200 C 280.180 70.336,280.000 71.146,280.000 72.000 C 280.000 72.854,280.180 73.664,280.400 73.800 C 280.620 73.936,280.800 74.487,280.800 75.024 C 280.800 75.561,280.980 76.000,281.200 76.000 C 281.420 76.000,281.600 76.278,281.600 76.618 C 281.600 77.418,283.382 79.200,284.182 79.200 C 284.522 79.200,284.800 79.380,284.800 79.600 C 284.800 79.820,285.239 80.000,285.776 80.000 C 286.313 80.000,286.864 80.180,287.000 80.400 C 287.136 80.620,288.047 80.800,289.024 80.800 C 290.001 80.800,290.800 80.620,290.800 80.400 C 290.800 80.180,291.340 80.000,292.000 80.000 C 292.660 80.000,293.200 79.820,293.200 79.600 C 293.200 79.380,293.740 79.200,294.400 79.200 C 295.060 79.200,295.600 79.020,295.600 78.800 C 295.600 78.580,295.960 78.400,296.400 78.400 C 296.840 78.400,297.200 78.220,297.200 78.000 C 297.200 77.780,297.549 77.600,297.976 77.600 C 298.403 77.600,298.864 77.420,299.000 77.200 C 299.136 76.980,299.687 76.800,300.224 76.800 C 300.761 76.800,301.200 76.620,301.200 76.400 C 301.200 76.180,301.560 76.000,302.000 76.000 C 302.440 76.000,302.800 75.820,302.800 75.600 C 302.800 75.380,303.115 75.200,303.500 75.200 C 304.283 75.199,307.806 73.927,308.248 73.485 C 308.405 73.328,308.953 73.200,309.467 73.200 C 309.980 73.200,310.400 73.020,310.400 72.800 C 310.400 72.580,310.760 72.400,311.200 72.400 C 311.640 72.400,312.000 72.220,312.000 72.000 C 312.000 71.780,312.439 71.600,312.976 71.600 C 313.513 71.600,314.064 71.420,314.200 71.200 C 314.336 70.980,314.797 70.800,315.224 70.800 C 315.651 70.800,316.000 70.620,316.000 70.400 C 316.000 70.180,316.349 70.000,316.776 70.000 C 317.203 70.000,317.664 69.820,317.800 69.600 C 317.936 69.380,318.487 69.200,319.024 69.200 C 319.561 69.200,320.000 69.020,320.000 68.800 C 320.000 68.580,320.360 68.400,320.800 68.400 C 321.240 68.400,321.600 68.220,321.600 68.000 C 321.600 67.780,322.050 67.600,322.600 67.600 C 323.150 67.600,323.600 67.420,323.600 67.200 C 323.600 66.980,323.960 66.800,324.400 66.800 C 324.840 66.800,325.200 66.620,325.200 66.400 C 325.200 66.180,325.740 66.000,326.400 66.000 C 327.060 66.000,327.600 65.820,327.600 65.600 C 327.600 65.380,327.960 65.200,328.400 65.200 C 328.840 65.200,329.200 65.020,329.200 64.800 C 329.200 64.580,329.549 64.400,329.976 64.400 C 330.403 64.400,330.864 64.220,331.000 64.000 C 331.136 63.780,331.687 63.600,332.224 63.600 C 332.761 63.600,333.200 63.420,333.200 63.200 C 333.200 62.980,333.560 62.800,334.000 62.800 C 334.440 62.800,334.800 62.620,334.800 62.400 C 334.800 62.180,335.239 62.000,335.776 62.000 C 336.313 62.000,336.864 61.820,337.000 61.600 C 337.136 61.380,337.597 61.200,338.024 61.200 C 338.451 61.200,338.800 61.020,338.800 60.800 C 338.800 60.580,339.250 60.400,339.800 60.400 C 340.350 60.400,340.800 60.220,340.800 60.000 C 340.800 59.780,341.160 59.600,341.600 59.600 C 342.040 59.600,342.400 59.420,342.400 59.200 C 342.400 58.980,342.749 58.800,343.176 58.800 C 343.603 58.800,344.064 58.620,344.200 58.400 C 344.336 58.180,344.842 58.000,345.324 58.000 C 346.371 58.000,349.600 55.165,349.600 54.246 C 349.600 53.891,349.780 53.600,350.000 53.600 C 350.237 53.600,350.400 52.133,350.400 50.000 C 350.400 47.867,350.237 46.400,350.000 46.400 C 349.780 46.400,349.600 46.175,349.600 45.900 C 349.597 43.228,343.919 41.130,339.045 42.000 M192.200 80.400 L 192.200 98.200 176.500 98.305 L 160.800 98.409 160.800 80.671 C 160.800 70.915,160.922 62.811,161.071 62.662 C 161.221 62.513,168.286 62.438,176.771 62.495 L 192.200 62.600 192.200 80.400 M239.104 80.505 L 239.208 98.409 223.504 98.305 L 207.800 98.200 207.696 80.800 C 207.638 71.230,207.678 63.173,207.785 62.895 C 207.937 62.499,211.295 62.413,223.489 62.495 L 239.000 62.600 239.104 80.505 M69.009 100.209 L 66.800 102.417 66.800 106.200 L 66.800 109.983 69.009 112.191 L 71.217 114.400 90.635 114.400 L 110.052 114.400 112.226 112.226 L 114.400 110.052 114.400 106.235 L 114.400 102.417 112.191 100.209 L 109.983 98.000 90.600 98.000 L 71.217 98.000 69.009 100.209 M287.809 100.209 L 285.600 102.417 285.600 106.235 L 285.600 110.052 287.774 112.226 L 289.948 114.400 309.365 114.400 L 328.783 114.400 330.991 112.191 L 333.200 109.983 333.200 106.200 L 333.200 102.417 330.991 100.209 L 328.783 98.000 309.400 98.000 L 290.017 98.000 287.809 100.209 M248.941 114.432 C 255.602 116.282,256.491 125.755,250.285 128.759 C 247.542 130.087,152.458 130.087,149.715 128.759 C 143.620 125.808,144.386 116.323,150.870 114.455 C 152.808 113.897,246.934 113.875,248.941 114.432 M109.400 132.000 C 109.264 132.220,108.623 132.400,107.976 132.400 C 107.329 132.400,106.800 132.580,106.800 132.800 C 106.800 133.020,106.361 133.200,105.824 133.200 C 105.287 133.200,104.736 133.380,104.600 133.600 C 104.464 133.820,104.003 134.000,103.576 134.000 C 103.149 134.000,102.800 134.180,102.800 134.400 C 102.800 134.620,102.451 134.800,102.024 134.800 C 101.597 134.800,101.136 134.980,101.000 135.200 C 100.864 135.420,100.313 135.600,99.776 135.600 C 99.239 135.600,98.800 135.780,98.800 136.000 C 98.800 136.220,98.440 136.400,98.000 136.400 C 97.560 136.400,97.200 136.580,97.200 136.800 C 97.200 137.020,96.761 137.200,96.224 137.200 C 95.687 137.200,95.136 137.380,95.000 137.600 C 94.864 137.820,94.403 138.000,93.976 138.000 C 93.549 138.000,93.200 138.180,93.200 138.400 C 93.200 138.620,92.851 138.800,92.424 138.800 C 91.997 138.800,91.536 138.980,91.400 139.200 C 91.264 139.420,90.803 139.600,90.376 139.600 C 89.949 139.600,89.600 139.780,89.600 140.000 C 89.600 140.220,89.240 140.400,88.800 140.400 C 88.360 140.400,88.000 140.580,88.000 140.800 C 88.000 141.020,87.471 141.200,86.824 141.200 C 86.177 141.200,85.545 141.366,85.419 141.569 C 85.294 141.772,84.614 142.065,83.909 142.220 C 83.203 142.375,82.350 142.636,82.013 142.801 C 81.676 142.965,80.618 143.482,79.662 143.950 C 78.706 144.417,77.581 144.800,77.162 144.800 C 76.743 144.800,76.400 144.980,76.400 145.200 C 76.400 145.420,76.040 145.600,75.600 145.600 C 75.160 145.600,74.800 145.780,74.800 146.000 C 74.800 146.220,74.361 146.400,73.824 146.400 C 73.287 146.400,72.736 146.580,72.600 146.800 C 72.464 147.020,72.003 147.200,71.576 147.200 C 71.149 147.200,70.800 147.380,70.800 147.600 C 70.800 147.820,70.451 148.000,70.024 148.000 C 69.597 148.000,69.136 148.180,69.000 148.400 C 68.864 148.620,68.313 148.800,67.776 148.800 C 67.239 148.800,66.800 148.980,66.800 149.200 C 66.800 149.420,66.440 149.600,66.000 149.600 C 65.560 149.600,65.200 149.780,65.200 150.000 C 65.200 150.220,64.761 150.400,64.224 150.400 C 63.687 150.400,63.136 150.580,63.000 150.800 C 62.864 151.020,62.403 151.200,61.976 151.200 C 61.549 151.200,61.200 151.380,61.200 151.600 C 61.200 151.820,60.851 152.000,60.424 152.000 C 59.997 152.000,59.536 152.180,59.400 152.400 C 59.264 152.620,58.803 152.800,58.376 152.800 C 57.949 152.800,57.600 152.980,57.600 153.200 C 57.600 153.420,57.240 153.600,56.800 153.600 C 56.360 153.600,56.000 153.780,56.000 154.000 C 56.000 154.220,55.575 154.400,55.056 154.400 C 54.075 154.400,51.021 157.047,50.100 158.695 C 49.499 159.769,49.414 166.000,50.000 166.000 C 50.220 166.000,50.400 166.276,50.400 166.613 C 50.400 167.409,52.991 170.000,53.787 170.000 C 54.124 170.000,54.400 170.180,54.400 170.400 C 54.400 170.973,60.092 170.900,62.006 170.303 C 62.883 170.029,63.600 169.669,63.600 169.503 C 63.600 169.336,63.960 169.200,64.400 169.200 C 64.840 169.200,65.200 169.020,65.200 168.800 C 65.200 168.580,65.740 168.400,66.400 168.400 C 67.060 168.400,67.600 168.220,67.600 168.000 C 67.600 167.780,67.960 167.600,68.400 167.600 C 68.840 167.600,69.200 167.420,69.200 167.200 C 69.200 166.980,69.650 166.800,70.200 166.800 C 70.750 166.800,71.200 166.620,71.200 166.400 C 71.200 166.180,71.549 166.000,71.976 166.000 C 72.403 166.000,72.864 165.820,73.000 165.600 C 73.136 165.380,73.597 165.200,74.024 165.200 C 74.451 165.200,74.800 165.020,74.800 164.800 C 74.800 164.580,75.250 164.400,75.800 164.400 C 76.350 164.400,76.800 164.220,76.800 164.000 C 76.800 163.780,77.160 163.600,77.600 163.600 C 78.040 163.600,78.400 163.420,78.400 163.200 C 78.400 162.980,78.940 162.800,79.600 162.800 C 80.260 162.800,80.800 162.620,80.800 162.400 C 80.800 162.180,81.160 162.000,81.600 162.000 C 82.040 162.000,82.400 161.820,82.400 161.600 C 82.400 161.380,82.839 161.200,83.376 161.200 C 83.913 161.200,84.464 161.020,84.600 160.800 C 84.736 160.580,85.197 160.400,85.624 160.400 C 86.051 160.400,86.400 160.220,86.400 160.000 C 86.400 159.780,86.760 159.600,87.200 159.600 C 87.640 159.600,88.000 159.440,88.000 159.245 C 88.000 159.050,88.495 158.797,89.100 158.683 C 90.712 158.378,95.378 156.649,95.533 156.300 C 95.607 156.135,96.012 156.000,96.433 156.000 C 96.855 156.000,97.200 155.820,97.200 155.600 C 97.200 155.380,97.639 155.200,98.176 155.200 C 98.713 155.200,99.264 155.020,99.400 154.800 C 99.536 154.580,99.997 154.400,100.424 154.400 C 100.851 154.400,101.200 154.220,101.200 154.000 C 101.200 153.780,101.543 153.600,101.962 153.600 C 102.621 153.600,103.789 153.114,106.895 151.550 C 107.277 151.357,107.862 151.200,108.195 151.200 C 108.528 151.200,108.800 151.020,108.800 150.800 C 108.800 150.580,109.160 150.400,109.600 150.400 C 110.040 150.400,110.400 150.220,110.400 150.000 C 110.400 149.780,110.940 149.600,111.600 149.600 C 112.260 149.600,112.800 149.420,112.800 149.200 C 112.800 148.980,113.160 148.800,113.600 148.800 C 114.040 148.800,114.400 148.620,114.400 148.400 C 114.400 148.180,114.675 148.000,115.011 148.000 C 116.026 148.000,119.200 144.541,119.200 143.434 C 119.200 142.891,119.380 142.336,119.600 142.200 C 119.820 142.064,120.000 141.243,120.000 140.376 C 120.000 139.509,119.820 138.800,119.600 138.800 C 119.380 138.800,119.200 138.260,119.200 137.600 C 119.200 136.940,119.020 136.400,118.800 136.400 C 118.580 136.400,118.400 136.122,118.400 135.782 C 118.400 134.982,116.618 133.200,115.818 133.200 C 115.478 133.200,115.200 133.020,115.200 132.800 C 115.200 132.580,114.761 132.400,114.224 132.400 C 113.687 132.400,113.136 132.220,113.000 132.000 C 112.864 131.780,112.054 131.600,111.200 131.600 C 110.346 131.600,109.536 131.780,109.400 132.000 M287.000 132.000 C 286.864 132.220,286.313 132.400,285.776 132.400 C 285.239 132.400,284.800 132.580,284.800 132.800 C 284.800 133.020,284.522 133.200,284.182 133.200 C 283.382 133.200,281.600 134.982,281.600 135.782 C 281.600 136.122,281.420 136.400,281.200 136.400 C 280.980 136.400,280.800 136.940,280.800 137.600 C 280.800 138.260,280.620 138.800,280.400 138.800 C 280.180 138.800,280.000 139.509,280.000 140.376 C 280.000 141.243,280.180 142.064,280.400 142.200 C 280.620 142.336,280.800 142.891,280.800 143.434 C 280.800 144.541,283.974 148.000,284.989 148.000 C 285.325 148.000,285.600 148.180,285.600 148.400 C 285.600 148.620,285.960 148.800,286.400 148.800 C 286.840 148.800,287.200 148.980,287.200 149.200 C 287.200 149.420,287.740 149.600,288.400 149.600 C 289.060 149.600,289.600 149.780,289.600 150.000 C 289.600 150.220,289.960 150.400,290.400 150.400 C 290.840 150.400,291.200 150.580,291.200 150.800 C 291.200 151.020,291.472 151.200,291.805 151.200 C 292.138 151.200,292.723 151.357,293.105 151.550 C 296.211 153.114,297.379 153.600,298.038 153.600 C 298.457 153.600,298.800 153.780,298.800 154.000 C 298.800 154.220,299.149 154.400,299.576 154.400 C 300.003 154.400,300.464 154.580,300.600 154.800 C 300.736 155.020,301.287 155.200,301.824 155.200 C 302.361 155.200,302.800 155.380,302.800 155.600 C 302.800 155.820,303.145 156.000,303.567 156.000 C 303.988 156.000,304.393 156.135,304.467 156.300 C 304.622 156.649,309.288 158.378,310.900 158.683 C 311.505 158.797,312.000 159.050,312.000 159.245 C 312.000 159.440,312.360 159.600,312.800 159.600 C 313.240 159.600,313.600 159.780,313.600 160.000 C 313.600 160.220,313.949 160.400,314.376 160.400 C 314.803 160.400,315.264 160.580,315.400 160.800 C 315.536 161.020,316.087 161.200,316.624 161.200 C 317.161 161.200,317.600 161.380,317.600 161.600 C 317.600 161.820,317.960 162.000,318.400 162.000 C 318.840 162.000,319.200 162.180,319.200 162.400 C 319.200 162.620,319.740 162.800,320.400 162.800 C 321.060 162.800,321.600 162.980,321.600 163.200 C 321.600 163.420,321.960 163.600,322.400 163.600 C 322.840 163.600,323.200 163.780,323.200 164.000 C 323.200 164.220,323.650 164.400,324.200 164.400 C 324.750 164.400,325.200 164.580,325.200 164.800 C 325.200 165.020,325.549 165.200,325.976 165.200 C 326.403 165.200,326.864 165.380,327.000 165.600 C 327.136 165.820,327.597 166.000,328.024 166.000 C 328.451 166.000,328.800 166.180,328.800 166.400 C 328.800 166.620,329.250 166.800,329.800 166.800 C 330.350 166.800,330.800 166.980,330.800 167.200 C 330.800 167.420,331.160 167.600,331.600 167.600 C 332.040 167.600,332.400 167.780,332.400 168.000 C 332.400 168.220,332.940 168.400,333.600 168.400 C 334.260 168.400,334.800 168.580,334.800 168.800 C 334.800 169.020,335.160 169.200,335.600 169.200 C 336.040 169.200,336.400 169.336,336.400 169.503 C 336.400 169.669,337.117 170.029,337.994 170.303 C 339.908 170.900,345.600 170.973,345.600 170.400 C 345.600 170.180,345.876 170.000,346.213 170.000 C 347.009 170.000,349.600 167.409,349.600 166.613 C 349.600 166.276,349.780 166.000,350.000 166.000 C 350.586 166.000,350.501 159.769,349.900 158.695 C 348.979 157.047,345.925 154.400,344.944 154.400 C 344.425 154.400,344.000 154.220,344.000 154.000 C 344.000 153.780,343.640 153.600,343.200 153.600 C 342.760 153.600,342.400 153.420,342.400 153.200 C 342.400 152.980,342.051 152.800,341.624 152.800 C 341.197 152.800,340.736 152.620,340.600 152.400 C 340.464 152.180,340.003 152.000,339.576 152.000 C 339.149 152.000,338.800 151.820,338.800 151.600 C 338.800 151.380,338.451 151.200,338.024 151.200 C 337.597 151.200,337.136 151.020,337.000 150.800 C 336.864 150.580,336.313 150.400,335.776 150.400 C 335.239 150.400,334.800 150.220,334.800 150.000 C 334.800 149.780,334.440 149.600,334.000 149.600 C 333.560 149.600,333.200 149.420,333.200 149.200 C 333.200 148.980,332.761 148.800,332.224 148.800 C 331.687 148.800,331.136 148.620,331.000 148.400 C 330.864 148.180,330.403 148.000,329.976 148.000 C 329.549 148.000,329.200 147.820,329.200 147.600 C 329.200 147.380,328.851 147.200,328.424 147.200 C 327.997 147.200,327.536 147.020,327.400 146.800 C 327.264 146.580,326.713 146.400,326.176 146.400 C 325.639 146.400,325.200 146.220,325.200 146.000 C 325.200 145.780,324.840 145.600,324.400 145.600 C 323.960 145.600,323.600 145.420,323.600 145.200 C 323.600 144.980,323.257 144.800,322.838 144.800 C 322.419 144.800,321.294 144.417,320.338 143.950 C 319.382 143.482,318.324 142.965,317.987 142.801 C 317.650 142.636,316.797 142.375,316.091 142.220 C 315.386 142.065,314.706 141.772,314.581 141.569 C 314.455 141.366,313.823 141.200,313.176 141.200 C 312.529 141.200,312.000 141.020,312.000 140.800 C 312.000 140.580,311.640 140.400,311.200 140.400 C 310.760 140.400,310.400 140.220,310.400 140.000 C 310.400 139.780,310.051 139.600,309.624 139.600 C 309.197 139.600,308.736 139.420,308.600 139.200 C 308.464 138.980,308.003 138.800,307.576 138.800 C 307.149 138.800,306.800 138.620,306.800 138.400 C 306.800 138.180,306.451 138.000,306.024 138.000 C 305.597 138.000,305.136 137.820,305.000 137.600 C 304.864 137.380,304.313 137.200,303.776 137.200 C 303.239 137.200,302.800 137.020,302.800 136.800 C 302.800 136.580,302.440 136.400,302.000 136.400 C 301.560 136.400,301.200 136.220,301.200 136.000 C 301.200 135.780,300.761 135.600,300.224 135.600 C 299.687 135.600,299.136 135.420,299.000 135.200 C 298.864 134.980,298.403 134.800,297.976 134.800 C 297.549 134.800,297.200 134.620,297.200 134.400 C 297.200 134.180,296.851 134.000,296.424 134.000 C 295.997 134.000,295.536 133.820,295.400 133.600 C 295.264 133.380,294.713 133.200,294.176 133.200 C 293.639 133.200,293.200 133.020,293.200 132.800 C 293.200 132.580,292.671 132.400,292.024 132.400 C 291.377 132.400,290.736 132.220,290.600 132.000 C 290.464 131.780,289.654 131.600,288.800 131.600 C 287.946 131.600,287.136 131.780,287.000 132.000 M212.548 145.516 C 212.655 145.689,200.426 151.989,185.371 159.515 C 158.535 172.932,158.000 173.178,157.993 172.100 C 157.983 170.678,160.047 146.358,160.234 145.700 C 160.396 145.127,212.195 144.944,212.548 145.516 M240.492 153.205 C 240.653 154.852,241.417 163.400,242.189 172.200 C 242.962 181.000,243.702 189.229,243.835 190.486 L 244.075 192.772 198.407 215.586 C 173.290 228.134,152.561 238.400,152.342 238.400 C 151.940 238.400,152.049 235.900,152.807 227.800 C 153.326 222.255,153.907 215.868,154.407 210.200 C 154.640 207.560,154.999 203.600,155.204 201.400 C 155.409 199.200,155.691 196.086,155.831 194.479 L 156.085 191.558 197.543 170.796 C 220.344 159.377,239.270 150.073,239.600 150.122 C 240.041 150.186,240.278 151.003,240.492 153.205 M246.021 215.203 C 246.230 217.621,246.585 221.625,246.811 224.100 C 247.038 226.575,247.390 230.490,247.595 232.800 C 247.799 235.110,248.191 239.430,248.465 242.400 C 248.740 245.370,248.972 248.933,248.982 250.318 L 249.000 252.835 244.600 255.140 C 242.180 256.408,237.140 259.036,233.400 260.982 C 229.660 262.927,225.340 265.185,223.800 265.998 C 222.260 266.812,217.940 269.058,214.200 270.990 C 210.460 272.923,206.500 274.998,205.400 275.603 C 204.300 276.207,200.520 278.189,197.000 280.007 C 193.480 281.824,189.160 284.070,187.400 284.998 C 185.640 285.926,181.860 287.905,179.000 289.396 C 176.140 290.887,172.000 293.051,169.800 294.205 C 167.600 295.359,163.280 297.608,160.200 299.203 C 157.120 300.798,153.814 302.538,152.854 303.070 C 150.107 304.589,146.185 304.311,146.236 302.600 C 146.272 301.425,146.816 294.961,147.617 286.200 C 147.838 283.780,148.203 279.730,148.428 277.200 C 148.652 274.670,149.012 270.710,149.226 268.400 C 149.440 266.090,149.727 262.614,149.864 260.675 L 150.114 257.150 197.557 233.419 C 234.541 214.919,245.071 209.810,245.321 210.246 C 245.498 210.554,245.813 212.784,246.021 215.203 M250.963 270.900 C 251.108 271.615,251.405 274.360,251.623 277.000 C 251.840 279.640,252.190 283.690,252.400 286.000 C 252.610 288.310,252.995 292.540,253.256 295.400 C 253.517 298.260,253.746 301.320,253.765 302.200 L 253.800 303.800 220.200 303.903 C 183.413 304.016,184.525 304.066,187.635 302.450 C 188.826 301.831,192.140 300.104,195.000 298.611 C 197.860 297.119,202.270 294.818,204.800 293.499 C 207.330 292.180,211.380 290.064,213.800 288.797 C 216.220 287.530,220.360 285.365,223.000 283.986 C 225.640 282.607,229.060 280.814,230.600 280.001 C 232.140 279.188,236.820 276.740,241.000 274.562 C 245.180 272.384,248.960 270.395,249.400 270.140 C 250.595 269.450,250.678 269.490,250.963 270.900 M264.941 320.089 C 268.845 321.259,270.561 324.861,270.328 331.400 L 270.200 335.000 249.800 335.200 C 230.314 335.391,229.339 335.436,228.042 336.200 C 222.612 339.400,222.711 346.881,228.221 349.772 C 229.771 350.585,230.399 350.604,262.800 350.800 C 299.549 351.023,297.531 350.861,299.739 353.756 C 301.440 355.986,301.595 357.450,301.598 371.300 L 301.600 384.400 200.000 384.400 L 98.400 384.400 98.402 371.300 C 98.405 357.450,98.560 355.986,100.261 353.756 C 102.469 350.861,100.451 351.023,137.200 350.800 C 169.601 350.604,170.229 350.585,171.779 349.772 C 177.289 346.881,177.388 339.400,171.958 336.200 C 170.661 335.436,169.686 335.391,150.200 335.200 L 129.800 335.000 129.672 331.400 C 129.445 325.021,131.147 321.293,134.822 320.121 C 136.914 319.454,262.718 319.423,264.941 320.089 M196.794 336.116 C 189.589 339.926,191.952 350.600,200.000 350.600 C 208.048 350.600,210.411 339.926,203.206 336.116 C 202.253 335.612,200.811 335.200,200.000 335.200 C 199.189 335.200,197.747 335.612,196.794 336.116 " stroke="none" fill="#000000" fill-rule="evenodd"></path></g></svg>